<?xml version="1.0" standalone="no"?>
<!DOCTYPE svg PUBLIC "-//W3C//DTD SVG 20010904//EN"
 "http://www.w3.org/TR/2001/REC-SVG-20010904/DTD/svg10.dtd">
<svg version="1.0" xmlns="http://www.w3.org/2000/svg"
 width="300.000000pt" height="300.000000pt" viewBox="0 0 300.000000 300.000000"
 preserveAspectRatio="xMidYMid meet">
<metadata>
Created by potrace 1.14, written by Peter Selinger 2001-2017
</metadata>
<g transform="translate(0.000000,300.000000) scale(0.100000,-0.100000)"
fill="#000000" stroke="none">
<path d="M430 2962 c3 -20 12 -47 18 -58 12 -22 78 -54 112 -54 25 0 154 -47
201 -74 122 -68 260 -199 342 -324 69 -104 90 -145 158 -307 20 -49 65 -207
75 -263 16 -91 24 -145 29 -195 l6 -57 -47 5 c-237 24 -405 69 -599 161 -253
119 -445 305 -533 516 -17 41 -34 90 -37 109 -19 108 -46 144 -115 150 l-35 4
-1 -1073 c0 -742 3 -1072 10 -1073 40 -5 91 17 111 47 8 13 17 40 21 61 6 47
21 98 40 140 8 17 14 35 14 41 0 21 120 190 174 244 198 200 470 329 831 393
17 3 61 8 99 11 l68 6 -6 -58 c-34 -301 -125 -563 -269 -773 -57 -84 -212
-245 -246 -256 -11 -3 -21 -10 -21 -15 0 -16 -186 -98 -262 -116 -97 -22 -125
-44 -137 -106 l-8 -48 1073 0 1074 1 0 23 c0 37 -19 80 -43 97 -12 9 -58 24
-102 34 -44 9 -84 20 -90 25 -5 4 -30 15 -55 24 -25 10 -74 37 -110 61 -287
193 -497 597 -537 1034 l-6 74 69 -7 c38 -3 78 -7 89 -10 34 -7 104 -18 110
-17 2 0 23 -6 45 -14 22 -8 40 -12 40 -8 0 3 7 0 15 -7 8 -7 15 -10 15 -7 0
10 164 -50 254 -93 161 -75 354 -226 437 -340 68 -95 128 -224 145 -315 11
-60 17 -74 39 -95 27 -26 102 -44 107 -26 3 9 2 2117 -1 2139 -1 10 -58 -1
-91 -18 -31 -16 -39 -35 -65 -155 -25 -114 -118 -264 -230 -374 -162 -158
-385 -276 -642 -341 -174 -43 -340 -63 -337 -40 1 6 5 44 8 85 4 41 12 95 17
120 6 25 12 54 13 65 3 24 8 40 49 170 111 354 351 636 632 741 28 10 23 9 94
24 82 17 120 49 128 107 l5 42 -1074 0 -1075 1 7 -38z"/>
</g>
</svg>
