<svg width="13" height="13" viewBox="0 0 13 13" fill="none" xmlns="http://www.w3.org/2000/svg">
<path d="M3.78981 0.604248C4.39593 0.604248 4.97528 0.743201 5.51165 1.01727C5.87678 1.2038 6.2122 1.45163 6.5 1.74567C6.78782 1.45163 7.12322 1.2038 7.48835 1.01727C8.02475 0.743201 8.60407 0.604248 9.21022 0.604248C11.2999 0.604248 13 2.30435 13 4.39406C13 5.87415 12.2183 7.44614 10.6767 9.06639C9.38948 10.4192 7.81356 11.5469 6.71821 12.2547L6.5 12.3958L6.28179 12.2547C5.18644 11.547 3.61052 10.4192 2.3233 9.06639C0.781662 7.44614 0 5.87415 0 4.39406C0 2.30435 1.70011 0.604248 3.78981 0.604248ZM2.90586 8.51208C4.05624 9.72111 5.45751 10.7489 6.5 11.4368C7.54249 10.7489 8.94376 9.72111 10.0941 8.51208C11.4888 7.04638 12.1959 5.66087 12.1959 4.39406C12.1959 2.74775 10.8565 1.40837 9.21019 1.40837C8.26237 1.40837 7.39169 1.84375 6.82146 2.60284L6.5 3.03077L6.17854 2.60284C5.60831 1.84375 4.73763 1.40837 3.78981 1.40837C2.1435 1.40837 0.804124 2.74775 0.804124 4.39406C0.804124 5.66087 1.51127 7.04638 2.90586 8.51208Z" fill="white"/>
</svg>
